<svg width="960" height="540" viewBox="0 0 960 540" fill="none" xmlns="http://www.w3.org/2000/svg">
<g clip-path="url(#clip0_203_17)">
<path d="M960 0H0V540H960V0Z" fill="#1ABC9C"/>
<path d="M0 168L22.8 205.3C45.7 242.7 91.3 317.3 137 332.8C182.7 348.3 228.3 304.7 274 306.3C319.7 308 365.3 355 411.2 349.8C457 344.7 503 287.3 548.8 254.8C594.7 222.3 640.3 214.7 686 235.8C731.7 257 777.3 307 823 296.7C868.7 286.3 914.3 215.7 937.2 180.3L960 145" stroke="#F1C40F" stroke-width="40" stroke-linecap="round"/>
<g clip-path="url(#clip1_203_17)">
<path d="M888.502 5.91451C901.002 21.7145 912.652 35.0645 917.952 53.6145C923.202 72.2145 922.102 96.1145 909.602 104.515C897.102 112.965 873.202 105.965 849.452 105.915C825.652 105.815 801.952 112.615 787.152 104.165C772.302 95.7645 766.352 72.0645 767.152 49.1645C768.002 26.3145 775.602 4.2645 790.452 -11.5355C805.252 -27.3855 827.302 -36.9855 845.002 -32.6355C862.652 -28.2855 876.002 -9.9355 888.502 5.91451Z" fill="#F39C12"/>
</g>
<path d="M86.7189 412.27C108.41 414.68 132.013 423.905 138.329 441.025C144.645 458.229 133.675 483.244 134.506 508.842C135.337 534.356 147.97 560.452 145.726 584.553C143.399 608.654 126.195 630.844 103.59 640.235C81.0675 649.627 53.2263 646.302 26.7979 643.892C0.286449 641.565 -24.7291 640.069 -49.0798 631.675C-73.3473 623.281 -96.8669 607.906 -99.6926 586.132C-102.518 564.441 -84.7332 536.433 -72.5163 515.324C-60.3825 494.298 -53.9831 480.252 -46.5865 466.373C-39.273 452.494 -31.0453 438.698 -18.9115 430.72C-6.77774 422.742 9.34523 420.664 27.2135 417.423C45.1648 414.181 65.0277 409.777 86.7189 412.27Z" fill="#16A085"/>
<path d="M371.874 96.0105C390.93 105.538 405.72 126.59 409.804 149.638C413.887 172.596 407.172 197.459 393.561 215.879C380.041 234.299 359.533 246.277 340.296 246.822C321.15 247.366 303.183 236.386 280.045 231.486C256.815 226.677 228.504 227.857 218.976 216.06C209.539 204.173 218.976 179.129 226.235 156.535C233.585 133.94 238.667 113.705 251.643 103.179C264.528 92.5623 285.398 91.6549 307.448 90.2031C329.498 88.6605 352.819 86.5734 371.874 96.0105Z" fill="#9B59B6"/>
<g clip-path="url(#clip2_203_17)">
<path d="M698.856 267.172C713.956 286.972 729.756 298.872 740.056 317.672C750.456 336.472 755.456 362.072 746.756 382.272C738.056 402.472 715.656 417.272 690.956 426.572C666.256 435.772 639.356 439.572 617.656 430.872C595.956 422.072 579.556 400.972 569.356 378.472C559.156 356.072 555.356 332.272 562.356 313.572C569.456 294.972 587.356 281.372 604.656 261.872C621.856 242.472 638.356 217.072 653.856 218.272C669.356 219.572 683.756 247.272 698.856 267.172Z" fill="#D35400"/>
</g>
</g>
<defs>
<clipPath id="clip0_203_17">
<rect width="960" height="540" fill="white"/>
</clipPath>
<clipPath id="clip1_203_17">
<rect width="154" height="143" fill="white" transform="translate(767 -34)"/>
</clipPath>
<clipPath id="clip2_203_17">
<rect width="194" height="218" fill="white" transform="translate(558 218)"/>
</clipPath>
</defs>
</svg>
